<?xml version="1.0" encoding="UTF-8"?>
<svg id="MeltingDome" xmlns="http://www.w3.org/2000/svg" version="1.1" viewBox="0 0 2048 2048">
  <!-- Generator: Adobe Illustrator 29.7.0, SVG Export Plug-In . SVG Version: 2.1.1 Build 138)  -->
  <defs>
    <style>
      .st0 {
        fill: #fff;
      }

      .st1 {
        fill: none;
        stroke: #fff;
        stroke-miterlimit: 10;
        stroke-width: 80px;
      }
    </style>
  </defs>
  <path id="meltingdome_base" class="st1" d="M1687.6,1543.7H359.1c-3.5,0-6.9-1.3-9.5-3.7l-209.1-188.6c-1.5-1.3-.5-3.7,1.4-3.7h1764.1c2,0,2.9,2.4,1.4,3.8l-210.4,188.6c-2.6,2.3-6,3.6-9.5,3.6h0Z"/>
  <path id="meltingdome_dome" class="st1" d="M300,1315.7c12.8-373.4,345.7-670,736-664,380.5,5.9,698.2,297.6,712,661.5"/>
  <circle id="meltingdome_holder" class="st1" cx="1024" cy="558" r="87"/>
  <g id="reflection_1">
    <path class="st0" d="M513.4,1175.5c3.4-9.6,7.1-19,11-28.4-1.4,3.2-2.7,6.4-4.1,9.7,17.7-41.7,40.7-81,68.3-117-2.1,2.7-4.2,5.5-6.3,8.2,27.5-35.5,59.4-67.5,94.9-95l-8.2,6.3c15.1-11.6,30.8-22.5,47-32.5s15.8-14.2,18.6-24.2,1.5-22.6-4.1-31.2c-11.7-18.1-36.1-26.4-55.4-14.5-88.2,54.3-161.8,132.6-208.9,225-11.8,23.3-22.1,47.4-30.9,72-3.4,9.5-.8,22.8,4.1,31.2,4.9,8.4,14.5,16.4,24.2,18.6,10.4,2.4,22,1.9,31.2-4.1s14.9-13.8,18.6-24.2h0Z"/>
  </g>
  <circle id="reflection_2" class="st0" cx="816.6" cy="823.2" r="41.8"/>
</svg>