<?xml version="1.0" encoding="UTF-8"?>
<svg id="MeltingDome" xmlns="http://www.w3.org/2000/svg" version="1.1" viewBox="0 0 2048 2048">
  <!-- Generator: Adobe Illustrator 29.7.0, SVG Export Plug-In . SVG Version: 2.1.1 Build 138)  -->
  <defs>
    <style>
      .st0 {
        fill: none;
        stroke: #000;
        stroke-miterlimit: 10;
        stroke-width: 80px;
      }

      .st1 {
        fill: #fff;
      }
    </style>
  </defs>
  <path id="meltingdome_base" class="st0" d="M1687.6,1543.7H359.1c-3.5,0-6.9-1.3-9.5-3.7l-209.1-188.6c-1.5-1.3-.5-3.7,1.4-3.7h1764.1c2,0,2.9,2.4,1.4,3.8l-210.4,188.6c-2.6,2.3-6,3.6-9.5,3.6h0Z"/>
  <path id="meltingdome_dome" class="st0" d="M300,1315.7c12.8-373.4,345.7-670,736-664,380.5,5.9,698.2,297.6,712,661.5"/>
  <circle id="meltingdome_holder" class="st0" cx="1024" cy="558" r="87"/>
  <g id="reflection_1">
    <path class="st1" d="M474.4,1164.7c13.8-38.6,39-95.1,85.4-153.1,48.3-60.2,100.2-97.9,135.8-119.7"/>
    <path d="M515.4,1176c3.4-9.6,7.1-19,11-28.4l-4.3,10.2c17.7-41.7,40.7-81,68.3-117l-6.6,8.6c27.5-35.5,59.4-67.5,94.9-95l-8.6,6.6c15.1-11.6,30.8-22.5,47-32.5,9.2-5.7,16.6-14.9,19.5-25.4s1.5-23.7-4.3-32.7c-12.2-19-37.9-27.7-58.1-15.2-88.5,54.4-162.4,133-209.6,225.7s-22.3,47.7-31.1,72.5c-3.6,9.9-.9,23.9,4.3,32.7s15.3,17.2,25.4,19.5,23.1,1.9,32.7-4.3,15.6-14.5,19.5-25.4h0Z"/>
  </g>
  <circle id="reflection_2" cx="816.6" cy="823.2" r="41.8"/>
</svg>