<svg xmlns="http://www.w3.org/2000/svg" viewBox="0 0 108 108" id="vector">
    <g id="group" transform="translate(24.3 24.3) scale(0.4752 0.4752)">
        <path id="path"
            d="M 103.373 37.245 C 99.472 30.76 91.862 27.04 82.476 27.04 C 75.77 27.04 69.76 29.984 64.839 33.711 C 60.448 28.85 51.965 24.412 42.907 24.649 C 37.057 24.802 28.758 26.969 22.444 36.442 C 19.191 41.321 18.194 46.476 19.479 51.763 C 21.909 61.766 32.086 69.2 36.363 71.941 L 36.363 96.699 C 36.363 98.72 38.002 100.358 40.02 100.358 L 88.369 100.358 C 90.39 100.358 92.028 98.72 92.028 96.699 L 92.028 70.064 C 96.437 67.849 100.149 64.799 102.366 60.631 C 106.927 52.057 107.283 43.753 103.374 37.244 Z M 95.909 57.201 C 89.852 68.596 63.997 69.056 54.543 68.275 C 52.538 68.094 50.763 69.605 50.597 71.615 C 50.428 73.628 51.924 75.399 53.935 75.564 C 54.341 75.599 57.099 75.814 61.137 75.814 C 67.292 75.814 76.415 75.306 84.714 72.883 L 84.714 93.047 L 43.675 93.047 L 43.675 69.886 C 43.675 68.559 42.953 67.336 41.794 66.69 C 41.666 66.618 28.844 59.379 26.582 50.024 C 25.792 46.764 26.429 43.646 28.526 40.502 C 32.202 34.99 37.1 32.118 43.094 31.963 C 49.621 31.81 56.204 35.059 59.366 38.547 C 54.38 43.592 51.369 48.474 51.115 48.897 C 50.07 50.62 50.62 52.864 52.344 53.915 C 54.067 54.963 56.317 54.419 57.368 52.692 C 57.478 52.51 68.708 34.359 82.481 34.359 C 89.232 34.359 94.564 36.788 97.106 41.017 C 99.64 45.231 99.215 50.979 95.91 57.201 Z"
            fill="#000000" />
    </g>
</svg>
